<mxfile host="65bd71144e">
    <diagram id="MaaWl841E69cvjbIWI_w" name="Page-1">
        <mxGraphModel dx="704" dy="305" grid="1" gridSize="10" guides="1" tooltips="1" connect="1" arrows="1" fold="1" page="1" pageScale="1" pageWidth="850" pageHeight="1100" math="0" shadow="0">
            <root>
                <mxCell id="0"/>
                <mxCell id="1" parent="0"/>
                <mxCell id="2" value="" style="rounded=1;whiteSpace=wrap;html=1;" vertex="1" parent="1">
                    <mxGeometry x="301" y="220" width="210" height="260" as="geometry"/>
                </mxCell>
                <mxCell id="3" value="" style="rounded=1;whiteSpace=wrap;html=1;" vertex="1" parent="1">
                    <mxGeometry x="325" y="246" width="160" height="40" as="geometry"/>
                </mxCell>
                <mxCell id="4" value="7" style="rounded=1;whiteSpace=wrap;html=1;" vertex="1" parent="1">
                    <mxGeometry x="330" y="310" width="30" height="20" as="geometry"/>
                </mxCell>
                <mxCell id="5" value="8" style="rounded=1;whiteSpace=wrap;html=1;" vertex="1" parent="1">
                    <mxGeometry x="370" y="310" width="30" height="20" as="geometry"/>
                </mxCell>
                <mxCell id="6" value="9" style="rounded=1;whiteSpace=wrap;html=1;" vertex="1" parent="1">
                    <mxGeometry x="410" y="310" width="30" height="20" as="geometry"/>
                </mxCell>
                <mxCell id="7" value="/" style="rounded=1;whiteSpace=wrap;html=1;" vertex="1" parent="1">
                    <mxGeometry x="450" y="310" width="30" height="20" as="geometry"/>
                </mxCell>
                <mxCell id="8" value="4" style="rounded=1;whiteSpace=wrap;html=1;" vertex="1" parent="1">
                    <mxGeometry x="330" y="340" width="30" height="20" as="geometry"/>
                </mxCell>
                <mxCell id="9" value="6" style="rounded=1;whiteSpace=wrap;html=1;" vertex="1" parent="1">
                    <mxGeometry x="410" y="340" width="30" height="20" as="geometry"/>
                </mxCell>
                <mxCell id="10" value="5" style="rounded=1;whiteSpace=wrap;html=1;" vertex="1" parent="1">
                    <mxGeometry x="370" y="340" width="30" height="20" as="geometry"/>
                </mxCell>
                <mxCell id="11" value="x" style="rounded=1;whiteSpace=wrap;html=1;" vertex="1" parent="1">
                    <mxGeometry x="450" y="340" width="30" height="20" as="geometry"/>
                </mxCell>
                <mxCell id="15" value="1" style="rounded=1;whiteSpace=wrap;html=1;" vertex="1" parent="1">
                    <mxGeometry x="330" y="370" width="30" height="20" as="geometry"/>
                </mxCell>
                <mxCell id="16" value="2" style="rounded=1;whiteSpace=wrap;html=1;" vertex="1" parent="1">
                    <mxGeometry x="370" y="370" width="30" height="20" as="geometry"/>
                </mxCell>
                <mxCell id="17" value="3" style="rounded=1;whiteSpace=wrap;html=1;" vertex="1" parent="1">
                    <mxGeometry x="410" y="370" width="30" height="20" as="geometry"/>
                </mxCell>
                <mxCell id="18" value="-" style="rounded=1;whiteSpace=wrap;html=1;" vertex="1" parent="1">
                    <mxGeometry x="450" y="370" width="30" height="20" as="geometry"/>
                </mxCell>
                <mxCell id="19" value="C" style="rounded=1;whiteSpace=wrap;html=1;" vertex="1" parent="1">
                    <mxGeometry x="330" y="400" width="30" height="20" as="geometry"/>
                </mxCell>
                <mxCell id="21" value="0" style="rounded=1;whiteSpace=wrap;html=1;" vertex="1" parent="1">
                    <mxGeometry x="370" y="400" width="30" height="20" as="geometry"/>
                </mxCell>
                <mxCell id="28" value="." style="rounded=1;whiteSpace=wrap;html=1;" vertex="1" parent="1">
                    <mxGeometry x="410" y="400" width="30" height="20" as="geometry"/>
                </mxCell>
                <mxCell id="30" value="+" style="rounded=1;whiteSpace=wrap;html=1;" vertex="1" parent="1">
                    <mxGeometry x="450" y="400" width="30" height="20" as="geometry"/>
                </mxCell>
                <mxCell id="34" value="=" style="rounded=1;whiteSpace=wrap;html=1;" vertex="1" parent="1">
                    <mxGeometry x="330" y="430" width="150" height="20" as="geometry"/>
                </mxCell>
                <mxCell id="35" value="" style="endArrow=none;html=1;" edge="1" parent="1">
                    <mxGeometry width="50" height="50" relative="1" as="geometry">
                        <mxPoint x="259" y="365" as="sourcePoint"/>
                        <mxPoint x="540" y="365" as="targetPoint"/>
                    </mxGeometry>
                </mxCell>
                <mxCell id="36" value="" style="endArrow=none;html=1;" edge="1" parent="1">
                    <mxGeometry width="50" height="50" relative="1" as="geometry">
                        <mxPoint x="261" y="395" as="sourcePoint"/>
                        <mxPoint x="541" y="395" as="targetPoint"/>
                    </mxGeometry>
                </mxCell>
                <mxCell id="37" value="" style="endArrow=none;html=1;" edge="1" parent="1">
                    <mxGeometry width="50" height="50" relative="1" as="geometry">
                        <mxPoint x="263" y="425" as="sourcePoint"/>
                        <mxPoint x="543" y="425" as="targetPoint"/>
                    </mxGeometry>
                </mxCell>
                <mxCell id="38" value="" style="endArrow=none;html=1;" edge="1" parent="1">
                    <mxGeometry width="50" height="50" relative="1" as="geometry">
                        <mxPoint x="270" y="335" as="sourcePoint"/>
                        <mxPoint x="550" y="335" as="targetPoint"/>
                    </mxGeometry>
                </mxCell>
                <mxCell id="39" value="" style="endArrow=none;html=1;" edge="1" parent="1">
                    <mxGeometry width="50" height="50" relative="1" as="geometry">
                        <mxPoint x="270" y="300" as="sourcePoint"/>
                        <mxPoint x="550" y="300" as="targetPoint"/>
                    </mxGeometry>
                </mxCell>
                <mxCell id="40" value="" style="endArrow=none;html=1;" edge="1" parent="1">
                    <mxGeometry width="50" height="50" relative="1" as="geometry">
                        <mxPoint x="366" y="180" as="sourcePoint"/>
                        <mxPoint x="366" y="510" as="targetPoint"/>
                    </mxGeometry>
                </mxCell>
                <mxCell id="41" value="" style="endArrow=none;html=1;" edge="1" parent="1">
                    <mxGeometry width="50" height="50" relative="1" as="geometry">
                        <mxPoint x="404.57" y="179" as="sourcePoint"/>
                        <mxPoint x="404.57" y="509" as="targetPoint"/>
                    </mxGeometry>
                </mxCell>
                <mxCell id="42" value="" style="endArrow=none;html=1;" edge="1" parent="1">
                    <mxGeometry width="50" height="50" relative="1" as="geometry">
                        <mxPoint x="445" y="185" as="sourcePoint"/>
                        <mxPoint x="445" y="515" as="targetPoint"/>
                    </mxGeometry>
                </mxCell>
            </root>
        </mxGraphModel>
    </diagram>
</mxfile>